<svg width="25" height="24" viewBox="0 0 25 24" fill="none" xmlns="http://www.w3.org/2000/svg">
<path d="M14.5 11H13.5V7H15.5C15.7652 7 16.0196 7.10536 16.2071 7.29289C16.3946 7.48043 16.5 7.73478 16.5 8C16.5 8.26522 16.6054 8.51957 16.7929 8.70711C16.9804 8.89464 17.2348 9 17.5 9C17.7652 9 18.0196 8.89464 18.2071 8.70711C18.3946 8.51957 18.5 8.26522 18.5 8C18.5 7.20435 18.1839 6.44129 17.6213 5.87868C17.0587 5.31607 16.2956 5 15.5 5H13.5V3C13.5 2.73478 13.3946 2.48043 13.2071 2.29289C13.0196 2.10536 12.7652 2 12.5 2C12.2348 2 11.9804 2.10536 11.7929 2.29289C11.6054 2.48043 11.5 2.73478 11.5 3V5H10.5C9.43913 5 8.42172 5.42143 7.67157 6.17157C6.92143 6.92172 6.5 7.93913 6.5 9C6.5 10.0609 6.92143 11.0783 7.67157 11.8284C8.42172 12.5786 9.43913 13 10.5 13H11.5V17H9.5C9.23478 17 8.98043 16.8946 8.79289 16.7071C8.60536 16.5196 8.5 16.2652 8.5 16C8.5 15.7348 8.39464 15.4804 8.20711 15.2929C8.01957 15.1054 7.76522 15 7.5 15C7.23478 15 6.98043 15.1054 6.79289 15.2929C6.60536 15.4804 6.5 15.7348 6.5 16C6.5 16.7956 6.81607 17.5587 7.37868 18.1213C7.94129 18.6839 8.70435 19 9.5 19H11.5V21C11.5 21.2652 11.6054 21.5196 11.7929 21.7071C11.9804 21.8946 12.2348 22 12.5 22C12.7652 22 13.0196 21.8946 13.2071 21.7071C13.3946 21.5196 13.5 21.2652 13.5 21V19H14.5C15.5609 19 16.5783 18.5786 17.3284 17.8284C18.0786 17.0783 18.5 16.0609 18.5 15C18.5 13.9391 18.0786 12.9217 17.3284 12.1716C16.5783 11.4214 15.5609 11 14.5 11V11ZM11.5 11H10.5C9.96957 11 9.46086 10.7893 9.08579 10.4142C8.71071 10.0391 8.5 9.53043 8.5 9C8.5 8.46957 8.71071 7.96086 9.08579 7.58579C9.46086 7.21071 9.96957 7 10.5 7H11.5V11ZM14.5 17H13.5V13H14.5C15.0304 13 15.5391 13.2107 15.9142 13.5858C16.2893 13.9609 16.5 14.4696 16.5 15C16.5 15.5304 16.2893 16.0391 15.9142 16.4142C15.5391 16.7893 15.0304 17 14.5 17Z" fill="white"/>
</svg>
