<svg width="91" height="16" viewBox="0 0 91 16" fill="none" xmlns="http://www.w3.org/2000/svg">
<path d="M54.3458 6.41645V15.7943H52.434V4.66838H54.2941L54.3458 6.41645ZM57.8386 4.60668L57.8283 6.37532C57.6698 6.34105 57.5183 6.32048 57.3736 6.31362C57.2358 6.29991 57.0774 6.29306 56.8983 6.29306C56.4573 6.29306 56.0681 6.36161 55.7305 6.49871C55.3929 6.63582 55.107 6.82776 54.8728 7.07455C54.6386 7.32134 54.4526 7.61611 54.3148 7.95887C54.1839 8.29477 54.0978 8.66495 54.0564 9.06941L53.5191 9.37789C53.5191 8.70608 53.5845 8.07541 53.7154 7.48586C53.8532 6.89632 54.0633 6.37532 54.3458 5.92288C54.6282 5.46358 54.9865 5.10711 55.4205 4.85347C55.8614 4.59297 56.385 4.46272 56.9913 4.46272C57.129 4.46272 57.2875 4.47986 57.4666 4.51414C57.6457 4.54156 57.7697 4.57241 57.8386 4.60668Z" fill="#495057"/>
<path d="M65.4547 13.892V8.16452C65.4547 7.72579 65.3651 7.34533 65.186 7.02314C65.0138 6.69409 64.752 6.44045 64.4006 6.26221C64.0493 6.08398 63.6153 5.99486 63.0986 5.99486C62.6163 5.99486 62.1926 6.07712 61.8275 6.24165C61.4693 6.40617 61.1868 6.62211 60.9801 6.88946C60.7803 7.15681 60.6804 7.44473 60.6804 7.75321H58.7687C58.7687 7.35561 58.872 6.96144 59.0787 6.57069C59.2854 6.17995 59.5816 5.82691 59.9674 5.51157C60.3601 5.18937 60.8286 4.93573 61.3728 4.75064C61.924 4.5587 62.5371 4.46272 63.2122 4.46272C64.0252 4.46272 64.7417 4.59983 65.3617 4.87404C65.9886 5.14824 66.4777 5.56298 66.8291 6.11825C67.1873 6.66667 67.3665 7.35561 67.3665 8.18509V13.3676C67.3665 13.7378 67.3975 14.132 67.4595 14.5501C67.5284 14.9683 67.6282 15.3282 67.7591 15.6298V15.7943H65.7647C65.6683 15.575 65.5925 15.2836 65.5374 14.9203C65.4822 14.5501 65.4547 14.2074 65.4547 13.892ZM65.7854 9.04884L65.806 10.3856H63.8736C63.3294 10.3856 62.8437 10.4302 62.4165 10.5193C61.9894 10.6015 61.6312 10.7284 61.3418 10.8997C61.0525 11.0711 60.832 11.2871 60.6804 11.5476C60.5289 11.8012 60.4531 12.0994 60.4531 12.4422C60.4531 12.7918 60.5323 13.1105 60.6908 13.3985C60.8492 13.6864 61.0869 13.916 61.4038 14.0874C61.7276 14.2519 62.1237 14.3342 62.5922 14.3342C63.1778 14.3342 63.6945 14.2108 64.1423 13.964C64.5901 13.7172 64.9449 13.4156 65.2067 13.0591C65.4753 12.7027 65.62 12.3565 65.6407 12.0206L66.4571 12.9357C66.4089 13.2237 66.278 13.5424 66.0644 13.892C65.8508 14.2416 65.5649 14.5775 65.2067 14.8997C64.8553 15.2151 64.4351 15.479 63.9459 15.6915C63.4637 15.8972 62.9194 16 62.3132 16C61.5554 16 60.8906 15.8526 60.3188 15.5578C59.7538 15.2631 59.3129 14.8689 58.996 14.3753C58.686 13.8749 58.531 13.3162 58.531 12.6992C58.531 12.1028 58.6481 11.5784 58.8824 11.126C59.1166 10.6667 59.4542 10.2862 59.8951 9.98458C60.336 9.67609 60.8665 9.44302 61.4865 9.28535C62.1065 9.12768 62.7989 9.04884 63.5636 9.04884H65.7854Z" fill="#495057"/>
<path d="M83.663 0V15.7943H81.7409V0H83.663ZM90.4936 4.66838L85.6161 9.86118L82.8879 12.6787L82.7329 10.653L84.686 8.32905L88.1582 4.66838H90.4936ZM88.7472 15.7943L84.7583 10.4884L85.7504 8.79177L91 15.7943H88.7472Z" fill="#495057"/>
<path d="M74.1351 14.437C74.5898 14.437 75.0101 14.3445 75.3959 14.1594C75.7817 13.9743 76.0986 13.7207 76.3466 13.3985C76.5946 13.0694 76.7358 12.6958 76.7703 12.2776H78.589C78.5546 12.9357 78.3307 13.5493 77.9173 14.1183C77.5109 14.6804 76.977 15.1362 76.3156 15.4859C75.6542 15.8286 74.9274 16 74.1351 16C73.2946 16 72.5609 15.8526 71.934 15.5578C71.314 15.2631 70.7973 14.8586 70.3839 14.3445C69.9775 13.8303 69.6709 13.2408 69.4642 12.5758C69.2644 11.904 69.1645 11.1945 69.1645 10.4473V10.0154C69.1645 9.26821 69.2644 8.56213 69.4642 7.89717C69.6709 7.22536 69.9775 6.63239 70.3839 6.11825C70.7973 5.60411 71.314 5.19966 71.934 4.90488C72.5609 4.61011 73.2946 4.46272 74.1351 4.46272C75.0101 4.46272 75.7748 4.64096 76.4293 4.99743C77.0837 5.34704 77.597 5.82691 77.969 6.43702C78.3479 7.04027 78.5546 7.72579 78.589 8.49357H76.7703C76.7358 8.03428 76.6049 7.61954 76.3776 7.24936C76.1571 6.87918 75.854 6.5844 75.4682 6.36504C75.0893 6.13882 74.6449 6.02571 74.1351 6.02571C73.5495 6.02571 73.057 6.14225 72.6574 6.37532C72.2647 6.60154 71.9512 6.91003 71.717 7.30077C71.4897 7.68466 71.3243 8.11311 71.221 8.58612C71.1245 9.05227 71.0763 9.52871 71.0763 10.0154V10.4473C71.0763 10.934 71.1245 11.4139 71.221 11.8869C71.3174 12.3599 71.4793 12.7883 71.7067 13.1722C71.9409 13.5561 72.2544 13.8646 72.6471 14.0977C73.0466 14.3239 73.5427 14.437 74.1351 14.437Z" fill="#495057"/>
<path d="M50.6256 4.66838V6.12853H44.5803V4.66838H50.6256ZM46.6264 1.96401H48.5382V13.0386C48.5382 13.4156 48.5967 13.7001 48.7138 13.892C48.8309 14.084 48.9825 14.2108 49.1685 14.2725C49.3545 14.3342 49.5543 14.365 49.7679 14.365C49.9263 14.365 50.0917 14.3513 50.2639 14.3239C50.443 14.2896 50.5774 14.2622 50.6669 14.2416L50.6773 15.7943C50.5257 15.8423 50.3259 15.8869 50.0779 15.928C49.8368 15.976 49.544 16 49.1995 16C48.7311 16 48.3005 15.9075 47.9078 15.7224C47.5151 15.5373 47.2016 15.2288 46.9674 14.7969C46.7401 14.3582 46.6264 13.7686 46.6264 13.0283V1.96401Z" fill="#495057"/>
<path d="M41.8521 12.8432C41.8521 12.569 41.7901 12.3153 41.6661 12.0823C41.549 11.8423 41.3045 11.6264 40.9324 11.4344C40.5673 11.2356 40.0162 11.0643 39.279 10.9203C38.659 10.7901 38.0975 10.6358 37.5946 10.4576C37.0986 10.2793 36.6749 10.0634 36.3235 9.80977C35.9791 9.55613 35.7138 9.25793 35.5278 8.91517C35.3418 8.57241 35.2488 8.17138 35.2488 7.71208C35.2488 7.27335 35.3453 6.85861 35.5382 6.46787C35.7379 6.07712 36.017 5.73093 36.3752 5.42931C36.7403 5.12768 37.1778 4.89117 37.6876 4.71979C38.1974 4.54841 38.7658 4.46272 39.3927 4.46272C40.2883 4.46272 41.053 4.62039 41.6868 4.93573C42.3206 5.25107 42.8063 5.67267 43.1439 6.20051C43.4815 6.72151 43.6502 7.30077 43.6502 7.9383H41.7385C41.7385 7.62982 41.6455 7.33162 41.4595 7.0437C41.2803 6.74893 41.0151 6.50557 40.6637 6.31362C40.3193 6.12168 39.8956 6.02571 39.3927 6.02571C38.8622 6.02571 38.4316 6.10797 38.101 6.27249C37.7772 6.43016 37.5395 6.63239 37.3879 6.87918C37.2432 7.12596 37.1709 7.38646 37.1709 7.66067C37.1709 7.86632 37.2053 8.05141 37.2742 8.21594C37.35 8.37361 37.4809 8.52099 37.6669 8.6581C37.8529 8.78835 38.1147 8.91174 38.4523 9.02828C38.7899 9.14482 39.2205 9.26135 39.744 9.37789C40.6603 9.58355 41.4147 9.83033 42.0072 10.1183C42.5996 10.4062 43.0405 10.7592 43.3299 11.1774C43.6192 11.5955 43.7639 12.1028 43.7639 12.6992C43.7639 13.1859 43.6606 13.6315 43.4539 14.036C43.2541 14.4404 42.9613 14.7901 42.5755 15.0848C42.1966 15.3728 41.7419 15.599 41.2114 15.7635C40.6879 15.9212 40.0988 16 39.4444 16C38.4592 16 37.6256 15.8252 36.9436 15.4756C36.2615 15.126 35.7448 14.6735 35.3935 14.1183C35.0421 13.563 34.8665 12.9769 34.8665 12.3599H36.7886C36.8161 12.8809 36.9677 13.2956 37.2432 13.6041C37.5188 13.9057 37.8564 14.1217 38.256 14.2519C38.6555 14.3753 39.0517 14.437 39.4444 14.437C39.9679 14.437 40.4054 14.3685 40.7568 14.2314C41.115 14.0943 41.3871 13.9057 41.5731 13.6658C41.7591 13.4259 41.8521 13.1517 41.8521 12.8432Z" fill="#495057"/>
<path d="M29.2552 16C28.4767 16 27.7705 15.8698 27.1367 15.6093C26.5098 15.3419 25.969 14.9683 25.5143 14.4884C25.0665 14.0086 24.722 13.4396 24.4809 12.7815C24.2398 12.1234 24.1192 11.4036 24.1192 10.6221V10.1902C24.1192 9.28535 24.2536 8.47986 24.5223 7.77378C24.7909 7.06084 25.1561 6.45758 25.6176 5.96401C26.0792 5.47044 26.6028 5.09683 27.1884 4.84319C27.774 4.58955 28.3802 4.46272 29.0072 4.46272C29.8063 4.46272 30.4952 4.59983 31.0739 4.87404C31.6595 5.14824 32.1383 5.53213 32.5103 6.02571C32.8824 6.51242 33.1579 7.08826 33.337 7.75321C33.5162 8.41131 33.6057 9.13111 33.6057 9.9126V10.7661H25.256V9.21337H31.694V9.06941C31.6664 8.57584 31.5631 8.09597 31.3839 7.62982C31.2117 7.16367 30.9361 6.77978 30.5572 6.47815C30.1783 6.17652 29.6616 6.02571 29.0072 6.02571C28.5731 6.02571 28.1736 6.11825 27.8084 6.30334C27.4433 6.48158 27.1298 6.74893 26.868 7.1054C26.6063 7.46187 26.403 7.89717 26.2583 8.41131C26.1137 8.92545 26.0413 9.51842 26.0413 10.1902V10.6221C26.0413 11.15 26.1137 11.647 26.2583 12.1131C26.4099 12.5724 26.6269 12.9769 26.9094 13.3265C27.1987 13.6761 27.5466 13.9503 27.9531 14.1491C28.3665 14.3479 28.8349 14.4473 29.3585 14.4473C30.0337 14.4473 30.6055 14.3102 31.0739 14.036C31.5424 13.7618 31.9523 13.395 32.3037 12.9357L33.461 13.8509C33.2199 14.2142 32.9134 14.5604 32.5413 14.8895C32.1693 15.2185 31.7112 15.4859 31.1669 15.6915C30.6296 15.8972 29.9923 16 29.2552 16Z" fill="#495057"/>
<path d="M18.5803 14.0771L21.6391 4.66838H23.5922L19.5723 15.7943H18.2909L18.5803 14.0771ZM16.0278 4.66838L19.1796 14.1285L19.3967 15.7943H18.1153L14.0644 4.66838H16.0278Z" fill="#495057"/>
<path d="M6.44833 7.0437V15.7943H4.53657V4.66838H6.34499L6.44833 7.0437ZM5.99364 9.80977L5.19793 9.77892C5.20482 9.01799 5.31849 8.31534 5.53895 7.67095C5.75941 7.01971 6.06942 6.45416 6.469 5.97429C6.86857 5.49443 7.34393 5.12425 7.89507 4.86375C8.4531 4.5964 9.06969 4.46272 9.74483 4.46272C10.296 4.46272 10.792 4.53813 11.2329 4.68895C11.6738 4.8329 12.0493 5.06598 12.3593 5.38818C12.6762 5.71037 12.9173 6.12853 13.0827 6.64267C13.248 7.14996 13.3307 7.77035 13.3307 8.50386V15.7943H11.4086V8.48329C11.4086 7.9006 11.3225 7.43445 11.1502 7.08483C10.978 6.72836 10.7266 6.47129 10.3959 6.31362C10.0652 6.1491 9.65872 6.06684 9.17647 6.06684C8.70111 6.06684 8.26709 6.16624 7.8744 6.36504C7.48861 6.56384 7.15448 6.83805 6.87202 7.18766C6.59645 7.53728 6.37944 7.9383 6.22099 8.39075C6.06942 8.83633 5.99364 9.30934 5.99364 9.80977Z" fill="#495057"/>
<path d="M1.99444 0.822622V15.7943H0V0.822622H1.99444Z" fill="#495057"/>
</svg>
